# xmcd
#
# Track frame offsets: 
#        150
#        49176
#        69261
#        76692
#        81799
#        87750
#        97994
#        102735
#        117332
#        127913
#        143508
#        158512
#        182716
#        203395
#        234224
#        252358
#        276749
#
# Disc length: 3917 seconds
#
# Revision: 1
# Processed by: cddbd v1.5.2PL0 Copyright (c) Steve Scherf et al.
# Submitted via: ExactAudioCopy v0.99pb4
#
DISCID=d30f4b11
DTITLE=Duo Turgeon - Latin American Journey
DYEAR=2003
DGENRE=Jazz
TTITLE0=Le Grand Tango
TTITLE1=Idilio Mexicano
TTITLE2=Scenas Infantis
TTITLE3=Corre Corre
TTITLE4=Roda Roda
TTITLE5=Marcha, Soldadinho
TTITLE6=Dorme, Nene
TTITLE7=Salta, Salta
TTITLE8=Travesso
TTITLE9=Valsa Choro no. 11
TTITLE10=Valsa de Esquina no. 2
TTITLE11=Lundu
TTITLE12=Las Ninas
TTITLE13=Muchacho Jujeno
TTITLE14=Baile
TTITLE15=Ante El Escorial
TTITLE16=Mlaguena
EXTD=YEAR: 2003
EXTT0=
EXTT1=
EXTT2=
EXTT3=
EXTT4=
EXTT5=
EXTT6=
EXTT7=
EXTT8=
EXTT9=
EXTT10=
EXTT11=
EXTT12=
EXTT13=
EXTT14=
EXTT15=
EXTT16=
PLAYORDER=
